<svg width="20" height="20" viewBox="0 0 20 20" fill="none" xmlns="http://www.w3.org/2000/svg">
<g clip-path="url(#clip0_437_7857)">
<mask id="mask0_437_7857" style="mask-type:alpha" maskUnits="userSpaceOnUse" x="0" y="0" width="20" height="20">
<rect width="20" height="20" fill="#D9D9D9"/>
</mask>
<g mask="url(#mask0_437_7857)">
<path d="M8 11.25V8.75C8 8.5375 8.07188 8.35937 8.21563 8.21562C8.35938 8.07187 8.5375 8 8.75 8H11.25C11.4625 8 11.6406 8.07187 11.7844 8.21562C11.9281 8.35937 12 8.5375 12 8.75V11.25C12 11.4625 11.9281 11.6406 11.7844 11.7844C11.6406 11.9281 11.4625 12 11.25 12H8.75C8.5375 12 8.35938 11.9281 8.21563 11.7844C8.07188 11.6406 8 11.4625 8 11.25ZM9.5 10.5H10.5V9.5H9.5V10.5ZM7.5 16.25V15H6.5C6.09722 15 5.74653 14.8507 5.44792 14.5521C5.14931 14.2535 5 13.9028 5 13.5V12.5H3.75C3.5375 12.5 3.35938 12.4285 3.21563 12.2856C3.07188 12.1427 3 11.9656 3 11.7544C3 11.5431 3.07188 11.3646 3.21563 11.2188C3.35938 11.0729 3.5375 11 3.75 11H5V9H3.75C3.5375 9 3.35938 8.92854 3.21563 8.78563C3.07188 8.64271 3 8.46563 3 8.25438C3 8.04313 3.07188 7.86458 3.21563 7.71875C3.35938 7.57292 3.5375 7.5 3.75 7.5H5V6.5C5 6.09722 5.14931 5.74653 5.44792 5.44792C5.74653 5.14931 6.09722 5 6.5 5H7.5V3.75C7.5 3.5375 7.57146 3.35937 7.71438 3.21562C7.85729 3.07187 8.03438 3 8.24563 3C8.45688 3 8.63542 3.07187 8.78125 3.21562C8.92708 3.35937 9 3.5375 9 3.75V5H11V3.75C11 3.5375 11.0715 3.35937 11.2144 3.21562C11.3573 3.07187 11.5344 3 11.7456 3C11.9569 3 12.1354 3.07187 12.2812 3.21562C12.4271 3.35937 12.5 3.5375 12.5 3.75V5H13.5C13.9028 5 14.2535 5.14931 14.5521 5.44792C14.8507 5.74653 15 6.09722 15 6.5V7.5H16.25C16.4625 7.5 16.6406 7.57146 16.7844 7.71437C16.9281 7.85729 17 8.03437 17 8.24562C17 8.45687 16.9281 8.63542 16.7844 8.78125C16.6406 8.92708 16.4625 9 16.25 9H15V11H16.25C16.4625 11 16.6406 11.0715 16.7844 11.2144C16.9281 11.3573 17 11.5344 17 11.7456C17 11.9569 16.9281 12.1354 16.7844 12.2812C16.6406 12.4271 16.4625 12.5 16.25 12.5H15V13.5C15 13.9028 14.8507 14.2535 14.5521 14.5521C14.2535 14.8507 13.9028 15 13.5 15H12.5V16.25C12.5 16.4625 12.4285 16.6406 12.2856 16.7844C12.1427 16.9281 11.9656 17 11.7544 17C11.5431 17 11.3646 16.9281 11.2188 16.7844C11.0729 16.6406 11 16.4625 11 16.25V15H9V16.25C9 16.4625 8.92854 16.6406 8.78562 16.7844C8.64271 16.9281 8.46562 17 8.25437 17C8.04312 17 7.86458 16.9281 7.71875 16.7844C7.57292 16.6406 7.5 16.4625 7.5 16.25ZM13.5 13.5V6.5H6.5V13.5H13.5Z" fill="#BAC8DE"/>
</g>
</g>
<defs>
<clipPath id="clip0_437_7857">
<rect width="20" height="20" fill="white"/>
</clipPath>
</defs>
</svg>
